<svg width="21" height="16" viewBox="0 0 21 16" fill="none" xmlns="http://www.w3.org/2000/svg">
<path d="M6.09745 14.0728C4.35453 15.8261 1.40271 15.8191 0.578339 13.4823C0.41694 13.0248 0.287896 12.5544 0.192984 12.0744C-0.194539 10.1145 0.0043516 8.0831 0.764508 6.23693C1.52466 4.39082 2.81194 2.81289 4.46355 1.70272C6.11519 0.592551 8.05697 -8.55975e-08 10.0433 0C12.0297 8.55975e-08 13.9715 0.592551 15.6231 1.70272C17.2747 2.81289 18.562 4.39082 19.3221 6.23699C20.0823 8.0831 20.2812 10.1145 19.8937 12.0744C19.7988 12.5544 19.6697 13.0248 19.5083 13.4823C18.6839 15.8191 15.7321 15.8261 13.9892 14.0728L11.2987 11.3663C11.0417 11.1077 11.0682 10.6812 11.1392 10.3226C11.1822 10.1046 11.1601 9.8786 11.0755 9.67322C10.991 9.46784 10.8478 9.29228 10.6641 9.1688C10.4803 9.04532 10.2643 8.97939 10.0433 8.97939C9.82237 8.97939 9.60635 9.04532 9.42262 9.1688C9.23882 9.29228 9.09565 9.46784 9.01108 9.67322C8.92651 9.8786 8.90439 10.1046 8.94752 10.3226C9.01843 10.6812 9.04493 11.1077 8.78789 11.3663L6.09745 14.0728Z" fill="url(#paint0_linear_1184_373)"/>
<defs>
<linearGradient id="paint0_linear_1184_373" x1="19.1724" y1="5.05168" x2="1.34555" y2="5.05168" gradientUnits="userSpaceOnUse">
<stop stop-color="#64C2DB"/>
<stop offset="0.510417" stop-color="#7476ED"/>
<stop offset="1" stop-color="#E56F8C"/>
</linearGradient>
</defs>
</svg>
